<?xml version="1.0" standalone="no"?>
<!DOCTYPE svg PUBLIC "-//W3C//DTD SVG 20010904//EN"
 "http://www.w3.org/TR/2001/REC-SVG-20010904/DTD/svg10.dtd">
<svg version="1.0" xmlns="http://www.w3.org/2000/svg"
 width="385.000000pt" height="385.000000pt" viewBox="0 0 385.000000 385.000000"
 preserveAspectRatio="xMidYMid meet">
<metadata>
Created by potrace 1.11, written by Peter Selinger 2001-2013
</metadata>
<g transform="translate(0.000000,385.000000) scale(0.100000,-0.100000)"
fill="#000000" stroke="none">
<path d="M1740 3799 c-191 -22 -342 -65 -517 -149 -330 -157 -588 -412 -755
-744 -188 -375 -224 -825 -98 -1236 16 -53 39 -117 50 -143 20 -44 23 -47 60
-47 l38 0 -33 83 c-88 216 -120 401 -112 652 8 254 47 412 156 640 212 440
597 741 1085 847 135 30 444 32 579 5 313 -63 576 -205 802 -431 268 -269 417
-586 456 -974 25 -237 -20 -528 -112 -731 -38 -84 -38 -91 10 -91 l38 0 31 83
c75 205 100 328 109 538 12 298 -41 548 -172 811 -177 355 -490 642 -862 786
-234 92 -511 129 -753 101z"/>
<path d="M2100 3480 c-19 -5 -47 -15 -61 -22 -23 -12 -14 -13 75 -10 88 3 105
0 134 -17 17 -12 32 -28 32 -38 0 -13 3 -14 12 -5 8 8 15 9 25 1 10 -9 13 -7
13 9 0 32 60 54 146 54 41 0 84 -3 96 -7 13 -3 5 4 -17 16 -51 28 -173 31
-221 6 -28 -14 -35 -15 -60 -2 -37 18 -129 26 -174 15z"/>
<path d="M2448 3294 c-26 -8 -50 -20 -54 -26 -5 -8 -2 -9 12 -3 10 4 48 10 84
12 50 4 76 0 113 -16 26 -11 47 -27 47 -35 0 -9 9 -13 25 -12 14 0 25 7 25 14
0 38 167 68 236 42 43 -17 41 -2 -2 16 -60 25 -143 29 -205 10 -49 -16 -58
-16 -98 -2 -53 19 -121 19 -183 0z"/>
<path d="M1993 3068 c-13 -6 -25 -19 -28 -28 -3 -9 -21 -25 -40 -35 -39 -22
-37 -35 6 -35 23 0 30 -4 28 -17 -3 -33 1 -44 26 -68 l24 -25 -24 0 c-12 0
-42 -16 -65 -35 -23 -19 -49 -35 -58 -35 -10 0 -26 -7 -36 -15 -11 -8 -30 -15
-42 -15 -12 0 -45 -12 -74 -27 -43 -22 -55 -25 -71 -15 -28 18 -47 15 -54 -8
-7 -23 10 -50 31 -50 14 0 35 -15 88 -65 18 -16 74 -68 126 -115 51 -47 109
-99 127 -115 71 -65 76 -95 38 -262 -3 -13 -1 -23 4 -23 6 0 22 -11 38 -26 28
-26 59 -117 70 -204 5 -42 3 -47 -29 -70 l-33 -25 -255 1 c-351 3 -836 32
-1205 73 -77 9 -95 6 -95 -15 0 -27 170 -85 300 -104 41 -5 107 -15 145 -20
287 -41 1129 -63 1510 -40 88 5 249 14 359 20 194 10 507 38 515 46 3 3 -3 12
-12 22 -15 14 -36 17 -145 15 -70 -1 -186 -5 -259 -8 l-131 -7 -44 39 c-53 48
-98 80 -160 113 -64 34 -368 297 -368 318 0 9 7 42 15 72 19 70 19 136 0 189
-11 33 -12 52 -3 95 8 40 7 63 -1 87 -6 17 -11 47 -11 66 0 46 -25 101 -63
141 -27 28 -30 35 -19 53 9 14 10 25 2 39 -8 14 -7 25 2 39 11 18 8 25 -22 56
-36 37 -65 43 -107 23z m-3 -331 c0 -7 9 -27 21 -46 15 -25 21 -53 23 -120 1
-47 -1 -96 -5 -107 -4 -12 -3 -26 3 -32 16 -16 5 -66 -15 -70 -16 -3 -122 86
-248 208 -14 14 -43 40 -63 58 -21 18 -36 36 -33 38 3 3 29 9 59 13 29 5 70
16 90 25 21 9 48 16 60 16 13 0 39 8 58 18 37 19 50 19 50 -1z m250 -617 c239
-195 319 -267 353 -318 20 -31 37 -60 37 -64 0 -5 -94 -8 -209 -8 l-209 0 -12
53 c-9 41 -26 173 -31 242 -2 29 15 135 21 133 4 -2 27 -19 50 -38z"/>
<path d="M507 1276 c-126 -47 -201 -172 -182 -305 20 -143 128 -231 285 -231
182 0 300 123 288 299 -8 103 -56 179 -143 224 -51 26 -192 34 -248 13z m166
-70 c79 -28 121 -96 120 -193 -1 -137 -108 -227 -232 -193 -112 30 -165 180
-106 303 37 78 131 114 218 83z"/>
<path d="M1043 1283 l-43 -4 0 -264 0 -264 36 -7 c55 -10 233 2 291 20 114 36
181 120 190 241 17 211 -146 307 -474 278z m273 -97 c81 -38 115 -115 94 -211
-23 -104 -85 -146 -222 -153 l-88 -4 0 196 0 196 83 0 c65 0 92 -5 133 -24z"/>
<path d="M1620 1015 l0 -275 180 0 180 0 0 40 0 40 -130 0 -130 0 0 85 0 85
121 0 120 0 -3 38 -3 37 -117 3 -118 3 0 69 0 70 126 0 125 0 -3 38 -3 37
-172 3 -173 2 0 -275z"/>
<path d="M2177 1280 c-48 -15 -96 -58 -108 -99 -24 -82 31 -153 151 -193 70
-23 120 -64 120 -98 0 -32 -44 -70 -82 -71 -62 -3 -113 3 -147 17 -18 8 -35
14 -36 14 -4 0 -25 -61 -25 -71 0 -19 114 -41 190 -37 125 7 200 66 200 158 0
67 -44 115 -138 150 -96 36 -123 52 -133 78 -23 60 56 102 152 80 72 -17 69
-17 85 20 13 33 13 33 -21 48 -37 15 -162 18 -208 4z"/>
<path d="M2625 1271 c-63 -28 -95 -73 -95 -131 0 -60 28 -97 97 -127 26 -12
74 -33 105 -47 42 -18 59 -31 64 -49 9 -38 2 -58 -27 -79 -33 -25 -124 -27
-188 -4 -24 9 -45 16 -46 16 -2 0 -6 -11 -9 -24 -3 -13 -9 -31 -12 -40 -9 -24
91 -49 185 -44 130 6 201 62 201 159 0 37 -6 55 -26 79 -27 32 -90 68 -156 89
-111 36 -121 121 -17 145 25 5 104 -5 139 -19 11 -4 19 5 29 30 15 42 16 39
-28 54 -53 17 -169 14 -216 -8z"/>
<path d="M3172 1277 c-11 -13 -212 -513 -212 -528 0 -5 22 -9 49 -9 l50 0 32
85 33 86 100 -3 101 -3 34 -82 34 -83 48 0 c34 0 49 4 49 13 0 10 -127 331
-207 525 -7 16 -97 16 -111 -1z m97 -217 l29 -75 -70 -3 c-39 -2 -72 -1 -74 1
-2 2 13 45 33 96 29 71 39 89 45 74 4 -10 21 -52 37 -93z"/>
<path d="M1370 548 c-82 -23 -126 -82 -117 -157 7 -60 50 -99 151 -135 87 -32
116 -56 116 -96 0 -63 -87 -96 -184 -68 -28 8 -57 17 -65 19 -8 2 -18 -10 -26
-32 -12 -35 -12 -37 11 -48 72 -32 213 -33 277 0 69 36 105 106 87 169 -17 60
-61 94 -169 131 -98 34 -128 86 -73 129 23 19 36 21 92 17 36 -3 75 -8 86 -12
18 -5 23 -1 33 25 6 18 8 36 6 41 -17 26 -156 37 -225 17z"/>
<path d="M2390 551 l-55 -6 -3 -268 -2 -267 50 0 50 0 0 103 0 104 72 1 c103
2 174 38 207 105 19 38 22 56 16 92 -8 56 -57 109 -112 124 -53 14 -158 20
-223 12z m184 -85 c40 -17 62 -62 49 -102 -15 -44 -53 -65 -127 -71 l-66 -6 0
97 0 96 55 0 c31 0 70 -6 89 -14z"/>
<path d="M1730 360 c0 -211 6 -239 62 -297 41 -42 87 -57 173 -56 80 1 129 19
174 63 49 50 61 109 61 307 l0 173 -49 0 -49 0 -4 -187 c-3 -215 -11 -243 -76
-270 -45 -19 -115 -12 -144 13 -41 37 -48 73 -48 264 l0 180 -50 0 -50 0 0
-190z"/>
</g>
</svg>
